<?xml version="1.0" standalone="no"?><!DOCTYPE svg PUBLIC "-//W3C//DTD SVG 1.1//EN" "http://www.w3.org/Graphics/SVG/1.1/DTD/svg11.dtd"><svg t="1598506273005" class="icon" viewBox="0 0 1024 1024" version="1.1" xmlns="http://www.w3.org/2000/svg" p-id="602" xmlns:xlink="http://www.w3.org/1999/xlink" width="200" height="200"><defs><style type="text/css"></style></defs><path d="M512 1024C794.816 1024 1024 794.816 1024 512c0-282.75199999-229.184-512-512-512s-512 229.248-512 512C0 794.816 229.216 1024 512 1024z m-96-704c-28.672-30.65599999-46.688-60-16-96 31.424-36.864 73.76-22.208 96 0L736 464c32 29.312 26.688 64.672 0 96l-240 240c-22.23999999 22.176-64.288 32.288-96 0-36-36.672-6.24-73.792 16-96L607.99999999 512l-191.99999999-192z" p-id="603"></path></svg>